<svg width="16" height="16" xmlns="http://www.w3.org/2000/svg" clip-rule="evenodd">

 <g>
  <title>background</title>
  <rect fill="#bfbf00" id="canvas_background" height="18" width="18" y="-1" x="-1"/>
 </g>
 <g>
  <title>Layer 1</title>
  <path id="svg_1" d="m8.021265,0.042236c4.427049,0 8.021265,3.544471 8.021265,7.910275c0,4.365803 -3.594216,7.910275 -8.021265,7.910275c-4.427049,0 -8.021265,-3.544473 -8.021265,-7.910275c0,-4.365804 3.594216,-7.910275 8.021265,-7.910275zm-2.507803,12.35583l0,-6.177454l-2.082523,0l0,6.177454l2.082523,0zm7.508028,0l0,-3.542516c0,-1.897526 -1.027319,-2.78023 -2.397263,-2.78023c-1.104647,0 -1.599459,0.599135 -1.876505,1.019914l0,-0.874623l-2.081987,0c0.027604,0.579574 0,6.177454 0,6.177454l2.081955,0l0,-3.449925c0,-0.184668 0.013474,-0.369259 0.06865,-0.501229c0.150244,-0.368779 0.493091,-0.750846 1.068302,-0.750846c0.75306,0 1.054764,0.566697 1.054764,1.396812l0,3.305188l2.082084,0zm-8.535222,-9.156189c-0.712512,0 -1.178029,0.461963 -1.178029,1.067445c0,0.592713 0.451353,1.06737 1.150456,1.06737l0.013442,0c0.726145,0 1.178124,-0.474657 1.178124,-1.06737c-0.013474,-0.605482 -0.451949,-1.067445 -1.163993,-1.067445z"/>
 </g>
</svg>
